<svg width="27" height="27" viewBox="0 0 27 27" fill="none" xmlns="http://www.w3.org/2000/svg">
<path fill-rule="evenodd" clip-rule="evenodd" d="M26.6717 1.12809C27.1093 1.55783 27.1104 2.26545 26.6751 2.69857L26.6706 2.70307C26.2363 3.13844 25.891 3.49281 25.891 3.49281L23.4902 1.11684C23.4902 1.11684 23.8367 0.762465 24.2698 0.329345L24.2721 0.327095C24.7075 -0.10715 25.4207 -0.1094 25.8572 0.322595L26.6717 1.12809ZM10.3778 14.1726L9.5127 17.3934L12.7774 16.5463L25.0859 4.28054L22.6874 1.90457L10.3778 14.1726ZM21.4355 11.6073V23.6323C21.4355 24.2522 20.9304 24.755 20.3083 24.755H3.38509C2.76184 24.755 2.25672 24.2522 2.25672 23.6323V6.80025C2.25672 6.18151 2.76184 5.67752 3.38509 5.67752H15.1547L17.4283 3.43317H3.38509C1.51873 3.43317 0 4.9429 0 6.80025V23.6323C0 25.4897 1.51873 26.9994 3.38509 26.9994H20.3083C22.1735 26.9994 23.6922 25.4897 23.6922 23.6323V9.37985L21.4355 11.6073Z" fill="white"/>
</svg>
