<svg width="23" height="23" viewBox="0 0 23 23" fill="none" xmlns="http://www.w3.org/2000/svg">
<path fill-rule="evenodd" clip-rule="evenodd" d="M0 2.41825C0 1.08269 1.08269 0 2.41825 0H16.3232C17.5563 0 18.5739 0.923062 18.7227 2.11595H4.83673C3.50117 2.11595 2.41848 3.19863 2.41848 4.53419V18.7414H2.41825C1.08269 18.7414 0 17.6587 0 16.3232V2.41825ZM6.64969 3.92963C5.31413 3.92963 4.23145 5.01231 4.23145 6.34787V20.2528C4.23145 21.5883 5.31413 22.671 6.64969 22.671H20.5546C21.8902 22.671 22.9728 21.5883 22.9728 20.2528V6.34787C22.9728 5.01231 21.8902 3.92963 20.5546 3.92963H6.64969Z" fill="white"/>
</svg>
