<svg width="17" height="25" viewBox="0 0 17 25" fill="none" xmlns="http://www.w3.org/2000/svg">
<path fill-rule="evenodd" clip-rule="evenodd" d="M4.3001 2.95C4.3001 1.84543 5.19553 0.949997 6.3001 0.949997H10.7001C11.8047 0.949997 12.7001 1.84543 12.7001 2.95V3.05H15.8501C16.43 3.05 16.9001 3.5201 16.9001 4.1L12.7001 4.1H4.3001L0.100098 4.1C0.100098 3.5201 0.570199 3.05 1.1501 3.05H4.3001V2.95ZM1.09473 5.06668L1.86797 22.727C1.86797 22.727 2.14605 24.05 3.19428 24.05H8.05744H8.94165H13.8048C14.8535 24.05 15.1316 22.727 15.1316 22.727L15.8686 5.06668H1.09473ZM11.5449 7.25003L11.0199 22.4096H12.0699L12.5949 7.25003H11.5449ZM5.875 22.4096L5.35017 7.25003H4.3L4.82483 22.4096H5.875ZM7.975 7.25003H9.025V22.4096H7.975V7.25003Z" fill="white"/>
</svg>
