<svg width="28" height="28" viewBox="0 0 28 28" fill="none" xmlns="http://www.w3.org/2000/svg">
<path fill-rule="evenodd" clip-rule="evenodd" d="M0 14C0 21.732 6.26801 28 14 28C21.732 28 28 21.732 28 14C28 6.26801 21.732 0 14 0C6.26801 0 0 6.26801 0 14ZM25.2727 14C25.2727 20.2257 20.2257 25.2727 14 25.2727C7.77422 25.2727 2.72725 20.2257 2.72725 14C2.72725 7.77422 7.77422 2.72725 14 2.72725C20.2257 2.72725 25.2727 7.77422 25.2727 14ZM13.7182 10.0545C12.9398 10.0545 12.3091 9.4238 12.3091 8.64542C12.3091 7.86704 12.9398 7.23633 13.7182 7.23633C14.4966 7.23633 15.1273 7.86704 15.1273 8.64542C15.1273 9.4238 14.4966 10.0545 13.7182 10.0545ZM11.7454 20.7636V21.3272H16.2545V20.7636H15.1272V12.309V11.7454H12.8727H11.7454V12.309H12.8727V20.7636H11.7454Z" fill="#424242"/>
</svg>
