<svg width="32" height="32" viewBox="0 0 32 32" fill="none" xmlns="http://www.w3.org/2000/svg">
<mask id="mask0_71_25" style="mask-type:alpha" maskUnits="userSpaceOnUse" x="0" y="4" width="29" height="28">
<path fill-rule="evenodd" clip-rule="evenodd" d="M28.0794 31.9989H0V4.06897L28.0794 4.06897V31.9989Z" fill="white"/>
</mask>
<g mask="url(#mask0_71_25)">
<path fill-rule="evenodd" clip-rule="evenodd" d="M25.4049 13.7569V28.0088C25.4049 28.7435 24.8063 29.3395 24.069 29.3395H4.01173C3.27307 29.3395 2.67441 28.7435 2.67441 28.0088V8.05961C2.67441 7.32628 3.27307 6.72895 4.01173 6.72895H17.961L20.6556 4.06897H4.01173C1.79975 4.06897 -0.000244141 5.85829 -0.000244141 8.05961V28.0088C-0.000244141 30.2101 1.79975 31.9995 4.01173 31.9995H24.069C26.2796 31.9995 28.0796 30.2101 28.0796 28.0088V11.1169L25.4049 13.7569Z" fill="black"/>
<path fill-rule="evenodd" clip-rule="evenodd" d="M12.2993 16.7972L11.2739 20.6145L15.1432 19.6105L29.7312 5.07325L26.8885 2.25726L12.2993 16.7972Z" fill="black"/>
</g>
<mask id="mask1_71_25" style="mask-type:alpha" maskUnits="userSpaceOnUse" x="27" y="0" width="5" height="5">
<path fill-rule="evenodd" clip-rule="evenodd" d="M31.9997 4.13965V0L27.8396 0V4.13965H31.9997Z" fill="white"/>
</mask>
<g mask="url(#mask1_71_25)">
<path fill-rule="evenodd" clip-rule="evenodd" d="M31.6142 3.19832C32.1302 2.68499 32.1289 1.84633 31.6102 1.337L30.6449 0.382337C30.1276 -0.12966 29.2823 -0.126993 28.7663 0.38767L28.7636 0.390337C28.2503 0.903667 27.8396 1.32366 27.8396 1.32366L30.6849 4.13965C30.6849 4.13965 31.0942 3.71965 31.6089 3.20365L31.6142 3.19832Z" fill="#3A3A3A"/>
</g>
</svg>
