<svg width="26" height="35" viewBox="0 0 26 35" fill="none" xmlns="http://www.w3.org/2000/svg">
<path fill-rule="evenodd" clip-rule="evenodd" d="M7.55909 6.79695L8.02848 7.29747C8.14303 7.417 8.32605 7.41949 8.43749 7.3037L12.2057 3.48871V22.1718H13.4514V3.32703L17.5017 7.3778C17.6119 7.49172 17.793 7.48923 17.907 7.37095L18.4218 6.87852C18.5357 6.76086 18.5382 6.57223 18.4274 6.45768L13.7374 1.76772C13.7287 1.70384 13.7003 1.64176 13.6525 1.59191L13.1831 1.09139C13.0679 0.97186 12.8849 0.96937 12.7741 1.08516L7.55224 6.37176C7.4408 6.48755 7.44454 6.67805 7.55909 6.79695ZM2.24508 32.7549V11.5886H9.71554V10.3435H1V34H24.6565V10.3435H15.9409V11.5886H23.4114V32.7549H2.24508Z" fill="black"/>
<path d="M8.02848 7.29747L7.51785 7.77634L7.52309 7.78181L8.02848 7.29747ZM7.55909 6.79695L8.06973 6.31807L8.06321 6.3113L7.55909 6.79695ZM8.43749 7.3037L7.93943 6.81174L7.93311 6.8183L8.43749 7.3037ZM12.2057 3.48871H12.9057V1.78393L11.7077 2.9968L12.2057 3.48871ZM12.2057 22.1718H11.5057V22.8718H12.2057V22.1718ZM13.4514 22.1718V22.8718H14.1514V22.1718H13.4514ZM13.4514 3.32703L13.9465 2.83208L12.7514 1.63692V3.32703H13.4514ZM17.5017 7.3778L18.0049 6.89107L17.9967 6.88285L17.5017 7.3778ZM17.907 7.37095L17.4231 6.86508L17.4127 6.87501L17.4028 6.88534L17.907 7.37095ZM18.4218 6.87852L18.9056 7.38438L18.9153 7.3751L18.9247 7.36545L18.4218 6.87852ZM18.4274 6.45768L18.9306 5.97091L18.9224 5.96271L18.4274 6.45768ZM13.7374 1.76772L13.044 1.86306L13.076 2.09625L13.2425 2.2627L13.7374 1.76772ZM13.6525 1.59191L13.1419 2.07078L13.1471 2.07624L13.6525 1.59191ZM13.1831 1.09139L13.6937 0.6125L13.6872 0.605687L13.1831 1.09139ZM12.7741 1.08516L13.2722 1.57714L13.2798 1.56914L12.7741 1.08516ZM7.55224 6.37176L7.05418 5.8798L7.04786 5.88636L7.55224 6.37176ZM2.24508 11.5886V10.8886H1.54508V11.5886H2.24508ZM2.24508 32.7549H1.54508V33.4549H2.24508V32.7549ZM9.71554 11.5886V12.2886H10.4155V11.5886H9.71554ZM9.71554 10.3435H10.4155V9.64355H9.71554V10.3435ZM1 10.3435V9.64355H0.3V10.3435H1ZM1 34H0.3V34.7H1V34ZM24.6565 34V34.7H25.3565V34H24.6565ZM24.6565 10.3435H25.3565V9.64355H24.6565V10.3435ZM15.9409 10.3435V9.64355H15.2409V10.3435H15.9409ZM15.9409 11.5886H15.2409V12.2886H15.9409V11.5886ZM23.4114 11.5886H24.1114V10.8886H23.4114V11.5886ZM23.4114 32.7549V33.4549H24.1114V32.7549H23.4114ZM8.53908 6.81863L8.06968 6.31811L7.04849 7.27579L7.51788 7.77632L8.53908 6.81863ZM7.93311 6.8183C8.11014 6.63435 8.38607 6.65891 8.53387 6.81314L7.52309 7.78181C7.89998 8.17509 8.54196 8.20463 8.94186 7.78909L7.93311 6.8183ZM11.7077 2.9968L7.93947 6.81178L8.9355 7.79561L12.7038 3.98063L11.7077 2.9968ZM11.5057 3.48871V22.1718H12.9057V3.48871H11.5057ZM12.2057 22.8718H13.4514V21.4718H12.2057V22.8718ZM14.1514 22.1718V3.32703H12.7514V22.1718H14.1514ZM12.9564 3.82197L17.0067 7.87274L17.9967 6.88285L13.9465 2.83208L12.9564 3.82197ZM16.9985 7.86445C17.398 8.27751 18.0362 8.24578 18.4111 7.85655L17.4028 6.88534C17.5498 6.73268 17.8257 6.70593 18.0048 6.89114L16.9985 7.86445ZM18.3908 7.87681L18.9056 7.38438L17.938 6.37266L17.4231 6.86508L18.3908 7.87681ZM18.9247 7.36545C19.2895 6.98871 19.3156 6.36909 18.9305 5.97098L17.9243 6.94439C17.7608 6.77537 17.782 6.53301 17.9189 6.39159L18.9247 7.36545ZM18.9224 5.96271L14.2324 1.27275L13.2425 2.2627L17.9324 6.95266L18.9224 5.96271ZM13.1471 2.07624C13.0888 2.01544 13.0545 1.93976 13.044 1.86306L14.4309 1.67238C14.4028 1.46791 14.3117 1.26807 14.1579 1.10758L13.1471 2.07624ZM12.6725 1.57023L13.1419 2.07075L14.1631 1.11306L13.6937 0.612544L12.6725 1.57023ZM13.2798 1.56914C13.1005 1.75656 12.8243 1.72791 12.679 1.57709L13.6872 0.605687C13.3115 0.215813 12.6693 0.18218 12.2684 0.601182L13.2798 1.56914ZM8.05025 6.86367L13.2721 1.57708L12.2761 0.593247L7.05422 5.87984L8.05025 6.86367ZM8.06321 6.3113C8.19438 6.44746 8.22118 6.68614 8.05661 6.85715L7.04786 5.88636C6.66042 6.28896 6.6947 6.90863 7.05496 7.2826L8.06321 6.3113ZM1.54508 11.5886V32.7549H2.94508V11.5886H1.54508ZM9.71554 10.8886H2.24508V12.2886H9.71554V10.8886ZM9.01554 10.3435V11.5886H10.4155V10.3435H9.01554ZM1 11.0435H9.71554V9.64355H1V11.0435ZM1.7 34V10.3435H0.3V34H1.7ZM24.6565 33.3H1V34.7H24.6565V33.3ZM23.9565 10.3435V34H25.3565V10.3435H23.9565ZM15.9409 11.0435H24.6565V9.64355H15.9409V11.0435ZM16.6409 11.5886V10.3435H15.2409V11.5886H16.6409ZM23.4114 10.8886H15.9409V12.2886H23.4114V10.8886ZM24.1114 32.7549V11.5886H22.7114V32.7549H24.1114ZM2.24508 33.4549H23.4114V32.0549H2.24508V33.4549Z" fill="black"/>
</svg>
