<svg width="37" height="38" viewBox="0 0 37 38" fill="none" xmlns="http://www.w3.org/2000/svg">
<path fill-rule="evenodd" clip-rule="evenodd" d="M34.3049 10.4304H35.6302C36.3822 10.4304 37 11.0593 36.9994 11.8398V14.1727C36.9994 14.9554 36.3811 15.5701 35.6291 15.5701H34.3032C34.0569 16.5678 33.6725 17.5094 33.1722 18.3657L34.1238 19.3667C34.3805 19.6347 34.523 19.9905 34.523 20.3694C34.5219 20.7477 34.381 21.1046 34.1238 21.3716L32.5359 23.0212C32.2787 23.2882 31.9356 23.4358 31.5712 23.4358C31.2064 23.4358 30.8638 23.2888 30.606 23.0201L29.6179 21.9953C28.8033 22.4891 27.9311 22.8691 26.9702 23.1134V24.5867C26.9702 25.3688 26.3693 25.9994 25.6172 25.9994H23.3724C22.6203 25.9994 22.0287 25.3688 22.0287 24.5867V23.114C21.0683 22.8691 20.1906 22.4891 19.376 21.9953L18.3792 23.0224C18.1215 23.2893 17.7789 23.4369 17.4151 23.4369C17.0513 23.4369 16.7093 23.2899 16.4515 23.0224L14.8636 21.3716C14.6064 21.104 14.4644 20.746 14.4644 20.3671C14.4644 19.9882 14.6058 19.6302 14.8636 19.3627L15.8163 18.3657C15.316 17.51 14.9316 16.5689 14.6858 15.5701H13.36C12.6074 15.5701 12 14.9554 12 14.1727V11.8398C12 11.0593 12.6074 10.4304 13.36 10.4304H14.6858C14.9316 9.43167 15.3166 8.49625 15.8174 7.64056L14.8647 6.6452C14.6069 6.37769 14.4661 6.02139 14.4661 5.64304C14.4661 5.26978 14.6113 4.90445 14.8658 4.64032L16.4526 2.99063C16.9687 2.45563 17.8692 2.45505 18.3836 2.99118L19.376 4.01767C20.1906 3.52393 21.0683 3.14331 22.0287 2.89957V1.42517C22.0287 0.643036 22.6203 0 23.3724 0H25.6172C26.3693 0 26.9702 0.643036 26.9702 1.42517V2.90015C27.9311 3.14444 28.8033 3.52451 29.6168 4.01767L30.6098 2.99118C31.1226 2.45618 32.0226 2.45563 32.5376 2.99176L34.1255 4.64145C34.3816 4.90842 34.5241 5.26584 34.5241 5.6442C34.5241 6.0231 34.3827 6.37997 34.1255 6.64746L33.1727 7.64056C33.6741 8.49625 34.0586 9.43167 34.3049 10.4304ZM20.183 13.0065C20.183 15.4582 22.1135 17.4472 24.4943 17.4472C26.8755 17.4472 28.8066 15.4587 28.8071 13.0065C28.8071 10.5532 26.8755 8.56696 24.4943 8.56696C22.1135 8.56696 20.183 10.5532 20.183 13.0065ZM16.1406 29.3836L17.0037 29.6149C17.4936 29.7461 17.7904 30.2478 17.6591 30.7365L17.2676 32.1975C17.1362 32.6877 16.6304 32.9648 16.1405 32.8336L15.277 32.6022C14.9491 33.184 14.5407 33.7066 14.0712 34.1556L14.523 34.9486C14.6452 35.1613 14.6783 35.4089 14.6147 35.6462C14.5505 35.883 14.3989 36.0819 14.1866 36.2042L12.8755 36.9602C12.6631 37.0825 12.4149 37.1151 12.1776 37.0515C11.9399 36.9878 11.7415 36.8359 11.6186 36.6227L11.1471 35.8085C10.5336 35.9755 9.90173 36.0613 9.23486 36.0466L8.98764 36.9693C8.85638 37.4591 8.35919 37.7492 7.86932 37.6179L6.40722 37.2262C5.91739 37.0949 5.63784 36.5967 5.7691 36.1069L6.01623 35.1846C5.43182 34.8636 4.92392 34.4724 4.47619 34.021L3.65463 34.4903C3.44192 34.6125 3.19403 34.6451 2.95706 34.5816C2.72012 34.5181 2.522 34.3664 2.39901 34.1538L1.64178 32.8428C1.51916 32.6304 1.48678 32.3814 1.55038 32.1441C1.61395 31.9068 1.76611 31.7073 1.97891 31.5847L2.76675 31.1266C2.5845 30.5034 2.492 29.8469 2.49951 29.1785L1.63598 28.9471C1.14578 28.8158 0.853329 28.3247 0.984677 27.8345L1.37616 26.3735C1.50714 25.8847 2.0083 25.5969 2.4985 25.7282L3.36203 25.9596C3.68972 25.377 4.09747 24.8583 4.56726 24.4099L4.11374 23.6202C3.99075 23.4077 3.9588 23.16 4.0223 22.923C4.08493 22.6892 4.24081 22.4858 4.45089 22.3648L5.76126 21.6086C6.18716 21.3636 6.7738 21.5204 7.01892 21.9459L7.49307 22.762C8.10647 22.5949 8.74203 22.5097 9.40844 22.5247L9.65585 21.6013C9.78711 21.1115 10.2804 20.812 10.7702 20.9433L12.2323 21.335C12.7222 21.4663 13.0056 21.9739 12.8744 22.4637L12.6269 23.3875C13.2117 23.7082 13.7161 24.0984 14.1632 24.5492L14.9822 24.0797C15.406 23.8341 15.9923 23.9908 16.2377 24.4165L16.9951 25.7268C17.1172 25.9387 17.15 26.1873 17.0865 26.4243C17.0229 26.6616 16.8709 26.8604 16.6585 26.9831L15.8713 27.4388C16.0543 28.0622 16.1477 28.7151 16.1406 29.3836ZM6.51025 28.5323C6.09884 30.0677 7.02243 31.6504 8.57309 32.0659C10.1241 32.4814 11.7155 31.5731 12.1274 30.0374C12.5391 28.5009 11.6143 26.9199 10.0633 26.5043C8.51263 26.0888 6.92193 26.9958 6.51025 28.5323Z" fill="black"/>
</svg>
