<svg width="30" height="30" viewBox="0 0 30 30" fill="none" xmlns="http://www.w3.org/2000/svg">
<path fill-rule="evenodd" clip-rule="evenodd" d="M24.954 0.516871C24.6231 0.185924 24.1742 0 23.7062 0H2.07086C1.09624 0 0.306152 0.790086 0.306152 1.76471V28.2353C0.306152 29.2099 1.09624 30 2.07086 30H27.9292C28.9038 30 29.6939 29.2099 29.6939 28.2353V5.9877C29.6939 5.51967 29.508 5.07081 29.177 4.73986L24.954 0.516871ZM6.4286 2.98919C6.4286 2.01457 7.21869 1.22449 8.19331 1.22449H20.5823C21.5569 1.22449 22.347 2.01458 22.347 2.9892V9.2557C22.347 10.2303 21.5569 11.0204 20.5823 11.0204H8.19331C7.21869 11.0204 6.4286 10.2303 6.4286 9.2557V2.98919ZM24.1837 27.0108C24.1837 27.9854 23.3936 28.7755 22.419 28.7755H6.96882C5.99419 28.7755 5.20411 27.9854 5.20411 27.0108V17.6831C5.20411 16.7085 5.9942 15.9184 6.96882 15.9184H22.419C23.3936 15.9184 24.1837 16.7085 24.1837 17.6831V27.0108ZM18.7455 3.06118H18.6015C17.6269 3.06118 16.8368 3.85127 16.8368 4.82589V7.41892C16.8368 8.39354 17.6269 9.18363 18.6015 9.18363H18.7455C19.7202 9.18363 20.5102 8.39354 20.5102 7.41892V4.82589C20.5102 3.85127 19.7202 3.06118 18.7455 3.06118ZM7.61697 17.7551C7.12966 17.7551 6.73462 18.1502 6.73462 18.6375V18.7095C6.73462 19.1968 7.12966 19.5918 7.61697 19.5918H21.7706C22.2579 19.5918 22.653 19.1968 22.653 18.7095V18.6375C22.653 18.1502 22.2579 17.7551 21.7706 17.7551H7.61697ZM6.73462 22.3109C6.73462 21.8236 7.12966 21.4285 7.61697 21.4285H21.7706C22.2579 21.4285 22.653 21.8236 22.653 22.3109V22.3829C22.653 22.8702 22.2579 23.2653 21.7706 23.2653H7.61697C7.12966 23.2653 6.73462 22.8702 6.73462 22.3829V22.3109ZM7.61697 25.102C7.12966 25.102 6.73462 25.4971 6.73462 25.9844V26.0564C6.73462 26.5437 7.12966 26.9388 7.61697 26.9388H21.7706C22.2579 26.9388 22.653 26.5437 22.653 26.0564V25.9844C22.653 25.4971 22.2579 25.102 21.7706 25.102H7.61697Z" fill="black"/>
</svg>
